<svg xmlns="http://www.w3.org/2000/svg" xmlns:xlink="http://www.w3.org/1999/xlink" width="500" zoomAndPan="magnify" viewBox="0 0 375 374.999991" height="500" preserveAspectRatio="xMidYMid meet" version="1.0"><defs><clipPath id="2f2d45e071"><path d="M 51 90.871094 L 317 90.871094 L 317 228 L 51 228 Z M 51 90.871094 " clip-rule="nonzero"/></clipPath><clipPath id="f0fdcf77fb"><path d="M 37.5 259 L 327 259 L 327 375 L 37.5 375 Z M 37.5 259 " clip-rule="nonzero"/></clipPath><clipPath id="9ca37f1d0f"><path d="M 46 61 L 105 61 L 105 146 L 46 146 Z M 46 61 " clip-rule="nonzero"/></clipPath><clipPath id="f526ccbe25"><path d="M 0 76.132812 L 94.136719 21.675781 L 150.84375 119.707031 L 56.707031 174.160156 Z M 0 76.132812 " clip-rule="nonzero"/></clipPath><clipPath id="b497fd3434"><path d="M 0 76.132812 L 94.136719 21.675781 L 150.84375 119.707031 L 56.707031 174.160156 Z M 0 76.132812 " clip-rule="nonzero"/></clipPath><clipPath id="9ac5c23646"><path d="M 79 31 L 116 31 L 116 88 L 79 88 Z M 79 31 " clip-rule="nonzero"/></clipPath><clipPath id="89b5522923"><path d="M 0 76.132812 L 94.136719 21.675781 L 150.84375 119.707031 L 56.707031 174.160156 Z M 0 76.132812 " clip-rule="nonzero"/></clipPath><clipPath id="058cc54cd3"><path d="M 0 76.132812 L 94.136719 21.675781 L 150.84375 119.707031 L 56.707031 174.160156 Z M 0 76.132812 " clip-rule="nonzero"/></clipPath><clipPath id="1287517374"><path d="M 72 46 L 99 46 L 99 86 L 72 86 Z M 72 46 " clip-rule="nonzero"/></clipPath><clipPath id="4f6d34f7e6"><path d="M 0 76.132812 L 94.136719 21.675781 L 150.84375 119.707031 L 56.707031 174.160156 Z M 0 76.132812 " clip-rule="nonzero"/></clipPath><clipPath id="b653752eb6"><path d="M 0 76.132812 L 94.136719 21.675781 L 150.84375 119.707031 L 56.707031 174.160156 Z M 0 76.132812 " clip-rule="nonzero"/></clipPath><clipPath id="12a2cd5ad3"><path d="M 29 71 L 56 71 L 56 110 L 29 110 Z M 29 71 " clip-rule="nonzero"/></clipPath><clipPath id="8b9c2c7d72"><path d="M 0 76.132812 L 94.136719 21.675781 L 150.84375 119.707031 L 56.707031 174.160156 Z M 0 76.132812 " clip-rule="nonzero"/></clipPath><clipPath id="d027f1e2d6"><path d="M 0 76.132812 L 94.136719 21.675781 L 150.84375 119.707031 L 56.707031 174.160156 Z M 0 76.132812 " clip-rule="nonzero"/></clipPath><clipPath id="e9720e40c1"><path d="M 12 69 L 49 69 L 49 126 L 12 126 Z M 12 69 " clip-rule="nonzero"/></clipPath><clipPath id="3e92bf6fc9"><path d="M 0 76.132812 L 94.136719 21.675781 L 150.84375 119.707031 L 56.707031 174.160156 Z M 0 76.132812 " clip-rule="nonzero"/></clipPath><clipPath id="e0c150744b"><path d="M 0 76.132812 L 94.136719 21.675781 L 150.84375 119.707031 L 56.707031 174.160156 Z M 0 76.132812 " clip-rule="nonzero"/></clipPath><clipPath id="f989d5a7f9"><path d="M 257 54 L 318 54 L 318 138 L 257 138 Z M 257 54 " clip-rule="nonzero"/></clipPath><clipPath id="f4c457612a"><path d="M 273.046875 14.125 L 364.851562 72.421875 L 304.140625 168.027344 L 212.335938 109.730469 Z M 273.046875 14.125 " clip-rule="nonzero"/></clipPath><clipPath id="b01670b0a8"><path d="M 273.046875 14.125 L 364.851562 72.421875 L 304.140625 168.027344 L 212.335938 109.730469 Z M 273.046875 14.125 " clip-rule="nonzero"/></clipPath><clipPath id="8ed7684d42"><path d="M 313 65 L 352 65 L 352 120 L 313 120 Z M 313 65 " clip-rule="nonzero"/></clipPath><clipPath id="1633d00817"><path d="M 273.046875 14.125 L 364.851562 72.421875 L 304.140625 168.027344 L 212.335938 109.730469 Z M 273.046875 14.125 " clip-rule="nonzero"/></clipPath><clipPath id="ae43958354"><path d="M 273.046875 14.125 L 364.851562 72.421875 L 304.140625 168.027344 L 212.335938 109.730469 Z M 273.046875 14.125 " clip-rule="nonzero"/></clipPath><clipPath id="2d8cf5dae1"><path d="M 307 66 L 335 66 L 335 104 L 307 104 Z M 307 66 " clip-rule="nonzero"/></clipPath><clipPath id="cb7870c307"><path d="M 273.046875 14.125 L 364.851562 72.421875 L 304.140625 168.027344 L 212.335938 109.730469 Z M 273.046875 14.125 " clip-rule="nonzero"/></clipPath><clipPath id="f1a52eedf7"><path d="M 273.046875 14.125 L 364.851562 72.421875 L 304.140625 168.027344 L 212.335938 109.730469 Z M 273.046875 14.125 " clip-rule="nonzero"/></clipPath><clipPath id="a576a04966"><path d="M 266 39 L 294 39 L 294 78 L 266 78 Z M 266 39 " clip-rule="nonzero"/></clipPath><clipPath id="86e319afae"><path d="M 273.046875 14.125 L 364.851562 72.421875 L 304.140625 168.027344 L 212.335938 109.730469 Z M 273.046875 14.125 " clip-rule="nonzero"/></clipPath><clipPath id="db34c3e9bd"><path d="M 273.046875 14.125 L 364.851562 72.421875 L 304.140625 168.027344 L 212.335938 109.730469 Z M 273.046875 14.125 " clip-rule="nonzero"/></clipPath><clipPath id="c2b1fcb8dc"><path d="M 249 24 L 288 24 L 288 79 L 249 79 Z M 249 24 " clip-rule="nonzero"/></clipPath><clipPath id="f668d13d3a"><path d="M 273.046875 14.125 L 364.851562 72.421875 L 304.140625 168.027344 L 212.335938 109.730469 Z M 273.046875 14.125 " clip-rule="nonzero"/></clipPath><clipPath id="c4cac6932b"><path d="M 273.046875 14.125 L 364.851562 72.421875 L 304.140625 168.027344 L 212.335938 109.730469 Z M 273.046875 14.125 " clip-rule="nonzero"/></clipPath></defs><g clip-path="url(#2f2d45e071)"><path fill="#ff5757" d="M 54.660156 227.707031 L 313.257812 227.707031 C 314.191406 227.707031 315.066406 227.296875 315.652344 226.597656 C 316.234375 225.898438 316.527344 225.019531 316.410156 224.085938 C 308.761719 164.429688 261.945312 118.023438 203.921875 109.265625 C 203.046875 98.992188 194.464844 90.9375 184.019531 90.9375 C 173.570312 90.9375 164.988281 98.992188 164.113281 109.265625 C 106.03125 118.023438 59.214844 164.429688 51.507812 224.085938 C 51.394531 225.019531 51.683594 225.898438 52.269531 226.597656 C 52.910156 227.296875 53.785156 227.707031 54.660156 227.707031 Z M 303.859375 216.5 L 290.609375 216.5 C 282.203125 174.878906 252.257812 138.277344 213.964844 122.632812 C 259.203125 134.132812 294.460938 170.792969 303.859375 216.5 Z M 303.859375 216.5 " fill-opacity="1" fill-rule="nonzero"/></g><path fill="#ff5757" d="M 326.390625 238.097656 L 41.585938 238.097656 C 39.835938 238.097656 38.375 239.496094 38.375 241.308594 C 38.375 243.058594 39.777344 244.519531 41.585938 244.519531 L 326.449219 244.519531 C 328.199219 244.519531 329.660156 243.117188 329.660156 241.308594 C 329.601562 239.554688 328.199219 238.097656 326.390625 238.097656 Z M 326.390625 238.097656 " fill-opacity="1" fill-rule="nonzero"/><g clip-path="url(#f0fdcf77fb)"><path fill="#ff5757" d="M 314.308594 261.269531 C 308.46875 258.878906 301.523438 260.277344 294.636719 265.242188 C 288.507812 269.675781 283.253906 276.390625 280.277344 283.746094 C 274.90625 296.820312 277.882812 309.195312 287.398438 315.382812 C 263.464844 348.714844 225.113281 368.503906 184.019531 368.503906 C 142.863281 368.503906 105.855469 349.066406 82.507812 318.183594 L 85.132812 295.652344 L 84.664062 294.777344 C 79.179688 284.679688 75.324219 273.820312 73.167969 262.554688 C 72.816406 260.804688 71.179688 259.695312 69.429688 260.046875 C 67.679688 260.394531 66.570312 262.03125 66.921875 263.78125 C 68.847656 273.703125 72 283.394531 76.320312 292.5 L 69.082031 296.121094 C 64.175781 285.789062 60.617188 274.582031 58.574219 262.789062 C 58.28125 261.039062 56.648438 259.871094 54.894531 260.160156 C 53.144531 260.453125 51.976562 262.089844 52.269531 263.839844 C 54.371094 276.273438 58.164062 288.066406 63.359375 298.980469 L 56.355469 302.542969 C 50.285156 289.992188 46.140625 276.625 44.039062 262.847656 C 43.746094 261.097656 42.167969 259.929688 40.417969 260.160156 C 38.667969 260.453125 37.5 262.03125 37.734375 263.78125 C 40.125 279.308594 44.914062 294.253906 52.035156 308.203125 C 52.035156 308.203125 52.035156 308.203125 52.035156 308.261719 C 52.035156 308.261719 52.035156 308.261719 52.035156 308.320312 C 52.445312 309.136719 52.851562 309.953125 53.320312 310.773438 L 53.84375 311.765625 L 76.84375 321.394531 C 101.359375 354.203125 140.414062 374.925781 183.960938 374.925781 C 227.507812 374.925781 268.191406 353.792969 293.234375 318.183594 C 295.394531 318.828125 297.554688 319.179688 299.65625 319.179688 C 309.230469 319.179688 318.042969 312.582031 322.714844 301.199219 C 325.75 293.84375 326.742188 285.378906 325.515625 277.90625 C 324.113281 269.558594 320.144531 263.664062 314.308594 261.269531 Z M 314.308594 261.269531 " fill-opacity="1" fill-rule="nonzero"/></g><path fill="#ff5757" d="M 138.195312 290.691406 C 138.136719 288.941406 136.675781 287.539062 134.925781 287.597656 C 120.683594 287.949219 113.621094 299.332031 111.867188 305.285156 C 111.402344 306.976562 112.335938 308.730469 114.027344 309.253906 C 114.320312 309.371094 114.613281 309.371094 114.960938 309.371094 C 116.304688 309.371094 117.589844 308.496094 117.996094 307.09375 C 118.113281 306.800781 119.339844 302.832031 122.726562 299.332031 C 138.136719 317.308594 160.261719 327.582031 184.078125 327.582031 C 207.835938 327.582031 230.015625 317.308594 245.425781 299.390625 C 248.8125 302.890625 250.039062 306.859375 250.15625 307.152344 C 250.5625 308.554688 251.847656 309.429688 253.191406 309.429688 C 253.484375 309.429688 253.773438 309.371094 254.066406 309.3125 C 255.757812 308.789062 256.691406 307.035156 256.226562 305.34375 C 254.476562 299.390625 247.410156 288.007812 233.167969 287.65625 C 231.476562 287.597656 229.957031 289 229.898438 290.75 C 229.839844 292.5 231.242188 293.960938 232.992188 294.019531 C 235.796875 294.078125 238.1875 294.71875 240.230469 295.652344 C 233.519531 303.417969 225.347656 309.605469 216.355469 313.925781 C 218.808594 308.203125 219.449219 302.65625 216.355469 299.15625 C 212.621094 295.011719 207.949219 294.71875 202.582031 297.40625 C 198.960938 299.214844 196.566406 303.007812 194 307.035156 C 190.496094 312.523438 186.527344 318.710938 178.882812 321.046875 C 159.152344 319.644531 141.054688 310.597656 128.039062 295.652344 C 130.082031 294.71875 132.414062 294.078125 135.277344 294.019531 C 136.851562 293.960938 138.253906 292.5 138.195312 290.691406 Z M 138.195312 290.691406 " fill-opacity="1" fill-rule="nonzero"/><g clip-path="url(#9ca37f1d0f)"><g clip-path="url(#f526ccbe25)"><g clip-path="url(#b497fd3434)"><path fill="#ff5757" d="M 68.59375 94.871094 L 96.679688 143.417969 C 97.859375 145.460938 100.472656 146.160156 102.515625 144.976562 C 104.558594 143.796875 105.257812 141.183594 104.074219 139.140625 L 75.992188 90.59375 C 81.417969 85.257812 82.785156 76.734375 78.800781 69.847656 C 74.074219 61.679688 63.613281 58.886719 55.449219 63.613281 C 47.28125 68.335938 44.488281 78.796875 49.210938 86.964844 C 53.195312 93.851562 61.265625 96.914062 68.59375 94.871094 Z M 59.726562 71.007812 C 63.808594 68.644531 69.039062 70.042969 71.402344 74.125 C 73.765625 78.210938 72.367188 83.441406 68.285156 85.800781 C 64.203125 88.164062 58.96875 86.765625 56.609375 82.683594 C 54.246094 78.601562 55.644531 73.371094 59.726562 71.007812 Z M 59.726562 71.007812 " fill-opacity="1" fill-rule="evenodd"/></g></g></g><g clip-path="url(#9ac5c23646)"><g clip-path="url(#89b5522923)"><g clip-path="url(#058cc54cd3)"><path fill="#ff5757" d="M 81.628906 39.660156 C 98.117188 47.144531 108.113281 64.417969 106.378906 82.445312 C 106.152344 84.792969 107.875 86.878906 110.222656 87.105469 C 112.570312 87.332031 114.65625 85.613281 114.882812 83.261719 C 116.964844 61.613281 104.960938 40.863281 85.160156 31.878906 C 83.011719 30.902344 80.476562 31.855469 79.503906 34.003906 C 78.527344 36.152344 79.480469 38.6875 81.628906 39.660156 Z M 81.628906 39.660156 " fill-opacity="1" fill-rule="evenodd"/></g></g></g><g clip-path="url(#1287517374)"><g clip-path="url(#4f6d34f7e6)"><g clip-path="url(#b653752eb6)"><path fill="#ff5757" d="M 98.035156 81.65625 C 99.433594 67.175781 91.402344 53.296875 78.152344 47.285156 C 76.003906 46.308594 73.46875 47.261719 72.496094 49.410156 C 71.523438 51.558594 72.476562 54.09375 74.621094 55.066406 C 84.554688 59.574219 90.574219 69.980469 89.53125 80.835938 C 89.304688 83.183594 91.027344 85.273438 93.371094 85.5 C 95.71875 85.726562 97.808594 84.003906 98.035156 81.65625 Z M 98.035156 81.65625 " fill-opacity="1" fill-rule="evenodd"/></g></g></g><g clip-path="url(#12a2cd5ad3)"><g clip-path="url(#8b9c2c7d72)"><g clip-path="url(#d027f1e2d6)"><path fill="#ff5757" d="M 29.976562 75.152344 C 28.578125 89.632812 36.609375 103.515625 49.859375 109.527344 C 52.007812 110.5 54.542969 109.546875 55.515625 107.398438 C 56.488281 105.253906 55.535156 102.71875 53.390625 101.746094 C 43.457031 97.238281 37.4375 86.828125 38.480469 75.972656 C 38.707031 73.625 36.984375 71.535156 34.636719 71.308594 C 32.289062 71.082031 30.203125 72.804688 29.976562 75.152344 Z M 29.976562 75.152344 " fill-opacity="1" fill-rule="evenodd"/></g></g></g><g clip-path="url(#e9720e40c1)"><g clip-path="url(#3e92bf6fc9)"><g clip-path="url(#e0c150744b)"><path fill="#ff5757" d="M 46.382812 117.152344 C 29.894531 109.667969 19.898438 92.394531 21.632812 74.367188 C 21.859375 72.019531 20.136719 69.929688 17.789062 69.703125 C 15.441406 69.476562 13.351562 71.199219 13.128906 73.550781 C 11.042969 95.195312 23.050781 115.949219 42.851562 124.933594 C 45 125.90625 47.535156 124.953125 48.507812 122.804688 C 49.480469 120.660156 48.53125 118.125 46.382812 117.152344 Z M 46.382812 117.152344 " fill-opacity="1" fill-rule="evenodd"/></g></g></g><g clip-path="url(#f989d5a7f9)"><g clip-path="url(#f4c457612a)"><g clip-path="url(#b01670b0a8)"><path fill="#ff5757" d="M 288.140625 83.613281 L 258.074219 130.957031 C 256.8125 132.949219 257.402344 135.59375 259.390625 136.855469 C 261.382812 138.121094 264.023438 137.53125 265.289062 135.539062 L 295.351562 88.195312 C 302.589844 90.539062 310.78125 87.808594 315.046875 81.09375 C 320.105469 73.128906 317.746094 62.558594 309.78125 57.503906 C 301.816406 52.445312 291.25 54.804688 286.191406 62.769531 C 281.925781 69.484375 282.941406 78.058594 288.140625 83.613281 Z M 305.199219 64.71875 C 309.183594 67.246094 310.363281 72.53125 307.832031 76.511719 C 305.304688 80.492188 300.019531 81.671875 296.039062 79.144531 C 292.054688 76.617188 290.875 71.332031 293.40625 67.351562 C 295.933594 63.367188 301.21875 62.1875 305.199219 64.71875 Z M 305.199219 64.71875 " fill-opacity="1" fill-rule="evenodd"/></g></g></g><g clip-path="url(#8ed7684d42)"><g clip-path="url(#1633d00817)"><g clip-path="url(#ae43958354)"><path fill="#ff5757" d="M 343.125 69.644531 C 344.109375 87.722656 333.414062 104.574219 316.628906 111.371094 C 314.441406 112.253906 313.386719 114.75 314.269531 116.933594 C 315.152344 119.121094 317.644531 120.175781 319.835938 119.289062 C 339.992188 111.128906 352.84375 90.890625 351.65625 69.175781 C 351.527344 66.824219 349.511719 65.015625 347.15625 65.144531 C 344.800781 65.273438 342.992188 67.292969 343.125 69.644531 Z M 343.125 69.644531 " fill-opacity="1" fill-rule="evenodd"/></g></g></g><g clip-path="url(#2d8cf5dae1)"><g clip-path="url(#cb7870c307)"><g clip-path="url(#f1a52eedf7)"><path fill="#ff5757" d="M 313.46875 103.609375 C 326.953125 98.152344 335.550781 84.617188 334.753906 70.085938 C 334.625 67.730469 332.609375 65.925781 330.253906 66.054688 C 327.898438 66.183594 326.09375 68.199219 326.222656 70.554688 C 326.816406 81.445312 320.371094 91.597656 310.261719 95.6875 C 308.078125 96.574219 307.019531 99.066406 307.90625 101.25 C 308.789062 103.4375 311.28125 104.496094 313.46875 103.609375 Z M 313.46875 103.609375 " fill-opacity="1" fill-rule="evenodd"/></g></g></g><g clip-path="url(#a576a04966)"><g clip-path="url(#86e319afae)"><g clip-path="url(#db34c3e9bd)"><path fill="#ff5757" d="M 287.769531 40.25 C 274.285156 45.707031 265.6875 59.246094 266.484375 73.773438 C 266.613281 76.128906 268.628906 77.9375 270.984375 77.808594 C 273.339844 77.675781 275.144531 75.660156 275.015625 73.304688 C 274.421875 62.414062 280.867188 52.265625 290.976562 48.171875 C 293.160156 47.289062 294.21875 44.796875 293.332031 42.609375 C 292.449219 40.425781 289.957031 39.367188 287.769531 40.25 Z M 287.769531 40.25 " fill-opacity="1" fill-rule="evenodd"/></g></g></g><g clip-path="url(#c2b1fcb8dc)"><g clip-path="url(#f668d13d3a)"><g clip-path="url(#c4cac6932b)"><path fill="#ff5757" d="M 258.117188 74.214844 C 257.128906 56.136719 267.824219 39.289062 284.609375 32.492188 C 286.796875 31.605469 287.855469 29.113281 286.96875 26.925781 C 286.085938 24.742188 283.59375 23.683594 281.402344 24.574219 C 261.246094 32.730469 248.394531 52.96875 249.582031 74.683594 C 249.710938 77.039062 251.730469 78.84375 254.082031 78.714844 C 256.4375 78.585938 258.246094 76.570312 258.117188 74.214844 Z M 258.117188 74.214844 " fill-opacity="1" fill-rule="evenodd"/></g></g></g></svg>